<svg width="46" height="45" viewBox="0 0 46 45" fill="none" xmlns="http://www.w3.org/2000/svg">
<path d="M19.2739 3.28453C20.1008 -0.773289 25.8992 -0.773289 26.7261 3.28453V3.28453C27.2929 6.06579 30.5966 7.26823 32.8185 5.50198V5.50198C36.0603 2.92504 40.5021 6.65217 38.5272 10.2922V10.2922C37.1736 12.7871 38.9315 15.8317 41.7689 15.9069V15.9069C45.9087 16.0167 46.9156 21.727 43.063 23.2459V23.2459C40.4224 24.2871 39.8119 27.7494 41.9371 29.6308V29.6308C45.0379 32.3759 42.1387 37.3974 38.211 36.0846V36.0846C35.519 35.1849 32.8258 37.4447 33.2445 40.2521V40.2521C33.8553 44.348 28.4066 46.3312 26.2417 42.8009V42.8009C24.7579 40.3812 21.2421 40.3812 19.7583 42.8009V42.8009C17.5934 46.3312 12.1447 44.348 12.7555 40.2521V40.2521C13.1742 37.4447 10.481 35.1849 7.78896 36.0846V36.0846C3.86132 37.3974 0.962138 32.3759 4.06285 29.6308V29.6308C6.1881 27.7494 5.57761 24.2871 2.93703 23.2459V23.2459C-0.915556 21.727 0.0913181 16.0167 4.23109 15.9069V15.9069C7.06851 15.8317 8.82636 12.7871 7.47278 10.2922V10.2922C5.49792 6.65216 9.93973 2.92504 13.1815 5.50198V5.50198C15.4034 7.26823 18.7071 6.06579 19.2739 3.28453V3.28453Z" fill="white"/>
</svg>
