<svg width="46" height="45" viewBox="0 0 46 45" fill="none" xmlns="http://www.w3.org/2000/svg">
<path d="M12.5592 6.28479C15.3655 8.51551 19.5379 6.99686 20.2538 3.48421C20.8632 0.493484 25.1368 0.493484 25.7462 3.48421C26.4621 6.99686 30.6345 8.51551 33.4408 6.28479C35.83 4.38551 39.1038 7.13251 37.6483 9.81529C35.9387 12.9663 38.1588 16.8116 41.7424 16.9066C44.7935 16.9875 45.5356 21.1961 42.6962 22.3156C39.3612 23.6306 38.5902 28.0033 41.2743 30.3796C43.5596 32.4028 41.4228 36.1038 38.528 35.1362C35.1281 33.9998 31.7267 36.8539 32.2554 40.3996C32.7056 43.4184 28.6898 44.88 27.0942 42.2781C25.2201 39.2221 20.7799 39.2221 18.9058 42.2781C17.3102 44.88 13.2944 43.4184 13.7446 40.3996C14.2733 36.8539 10.8719 33.9998 7.47196 35.1362C4.57718 36.1038 2.4404 32.4028 4.72571 30.3796C7.40984 28.0033 6.6388 23.6306 3.30382 22.3156C0.464359 21.1961 1.20646 16.9875 4.25758 16.9066C7.84116 16.8116 10.0613 12.9663 8.35175 9.81529C6.89622 7.13251 10.17 4.38551 12.5592 6.28479Z" stroke="white" stroke-width="2"/>
</svg>
